<svg xmlns="http://www.w3.org/2000/svg" width="35" height="33" viewBox="0 0 35 33"><path d="M18.11,22.62v7.83a2.2,2.2,0,0,1-2.37,2.38H3.52a2.21,2.21,0,0,1-2.36-2.36V14.75A2.19,2.19,0,0,1,3.5,12.41H15.79a2.18,2.18,0,0,1,2.32,2.32ZM9.62,18.54H15c.49,0,.65-.16.66-.65V16.16c0-.43-.19-.61-.61-.61H4.19c-.42,0-.59.18-.6.61s0,1.13,0,1.7.15.68.69.68Zm4.15,4.07h.44c1,0,1-.1,1-1.05,0-.45-.18-.62-.62-.63H13.38c-1,0-1.11.11-1.05,1.12a.52.52,0,0,0,.56.55C13.18,22.62,13.47,22.61,13.77,22.61Zm0,3.54h.44c1,0,1.06-.1,1-1,0-.44-.19-.62-.62-.62H13.38c-1,0-1.11.12-1.05,1.12a.52.52,0,0,0,.56.56C13.18,26.16,13.48,26.15,13.77,26.15Zm0,3.54h.44c.93,0,1-.12,1-1.07,0-.42-.19-.6-.61-.6H13.37c-1,0-1.09.1-1,1.1a.53.53,0,0,0,.57.58Zm-8.3-7.08H5.9c1,0,1.07-.08,1-1.06,0-.43-.18-.61-.63-.62s-.81,0-1.22,0c-1.15-.06-1.06.29-1,1.12a.5.5,0,0,0,.56.55C4.9,22.62,5.2,22.61,5.49,22.61Zm0,3.54h.41C7.07,26.22,7,25.86,6.94,25a.5.5,0,0,0-.53-.54c-.62,0-1.23,0-1.84,0a.5.5,0,0,0-.52.52c-.08.7,0,1,.37,1.12a1.18,1.18,0,0,0,.27,0Zm0,1.86H5.07c-1,0-1.07.11-1,1.08,0,.41.2.59.62.6H5.88c1,0,1.12-.1,1.06-1.11A.52.52,0,0,0,6.36,28Zm4.13-5.39h.41c1,0,1.07-.1,1-1.07a.54.54,0,0,0-.61-.61c-.42,0-.84,0-1.25,0-1.14-.06-1.06.29-1,1.1a.51.51,0,0,0,.57.57Zm0,3.53h.44c.95,0,1-.08,1-1,0-.47-.19-.65-.67-.65s-.79,0-1.19,0c-1.18-.06-1.05.33-1,1.13a.51.51,0,0,0,.56.55C9.05,26.16,9.34,26.15,9.64,26.15Zm0,1.86H9.22c-1,0-1.07.1-1,1.07a.54.54,0,0,0,.61.61c.42,0,.84,0,1.25,0,1.16.06,1-.32,1-1.1v0a.52.52,0,0,0-.54-.53C10.25,28,10,28,9.66,28Z" fill="#fff"/><path d="M19.21,15.94c-.05-1,.15-2-.45-3l.4,0h5.75a1.21,1.21,0,0,0,.43,0,.48.48,0,0,0,.34-.56.5.5,0,0,0-.46-.47H18a1.31,1.31,0,0,1-.54-.14,3.54,3.54,0,0,0-1.66-.4H6.47V1c0-.64.17-.81.8-.81H23.85c0,.13,0,.25,0,.37,0,.92,0,1.83,0,2.75a1.39,1.39,0,0,0,1.54,1.54H28.5c0,.08,0,.13,0,.17q0,2.56,0,5.13a.85.85,0,0,1-.12.38q-1.5,2.61-3,5.21A.51.51,0,0,1,25,16H19.39ZM12.6,10.6A4.32,4.32,0,1,0,8.27,6.28,4.3,4.3,0,0,0,12.6,10.6ZM22,7.76H18.63a.54.54,0,0,0,0,1.05,2,2,0,0,0,.34,0h6l.33,0a.51.51,0,0,0,.41-.55.5.5,0,0,0-.44-.49,1.83,1.83,0,0,0-.33,0Zm-1.81-3h1.32c.41,0,.65-.2.65-.53s-.24-.55-.63-.55H18.8c-.4,0-.63.22-.63.55a.54.54,0,0,0,.62.53Z" fill="#fff"/><path d="M25.53,24.28c.48-.28.94-.56,1.41-.81a1.72,1.72,0,0,0,.77-.76c.23-.45.5-.87.78-1.35a1.43,1.43,0,0,1,0,.21v6.5c0,.43-.21.67-.6.68h-8.7V25.27H25C25.63,25.27,25.86,24.9,25.53,24.28Z" fill="#fff"/><path d="M32.57,12.1l-5.66,9.81L24,20.26l5.66-9.82Z" fill="#fff"/><path d="M19.23,17.06h5.36c-.05.1-.07.18-.11.25-.49.85-1,1.69-1.47,2.53a.44.44,0,0,1-.29.22H19.23Z" fill="#fff"/><path d="M19.23,21.17h3.43v3H19.23Z" fill="#fff"/><path d="M33.12,11.16,30.24,9.5A10.3,10.3,0,0,1,31,8.34c.5-.61,1.26-.58,2.2,0a1.35,1.35,0,0,1,.55,1.74C33.54,10.46,33.33,10.79,33.12,11.16Z" fill="#fff"/><path d="M25,.32,28.4,3.74h-3c-.25,0-.42-.08-.41-.37v-3A.13.13,0,0,1,25,.32Z" fill="#fff"/><path d="M23.76,21.35l2.32,1.34-.54.33-1.45.83c-.18.11-.33.13-.33-.15Z" fill="#fff"/><path d="M12,8.88a1.81,1.81,0,0,1-1.31-1.17A.56.56,0,0,1,11,6.94c.3-.11.56,0,.72.38a1.06,1.06,0,0,0,1.57.34.35.35,0,0,0-.05-.58,2.36,2.36,0,0,0-.59-.24c-.28-.09-.58-.12-.85-.23a1.39,1.39,0,0,1-1-1.29,1.47,1.47,0,0,1,.88-1.48c.19-.1.36-.15.38-.43A.46.46,0,0,1,12.61,3a.48.48,0,0,1,.5.42c0,.22.14.29.32.36a1.74,1.74,0,0,1,.9.89.55.55,0,1,1-1,.5.82.82,0,0,0-1.14-.39.59.59,0,0,0-.29.4.5.5,0,0,0,.29.39,5.57,5.57,0,0,0,.85.23,1.84,1.84,0,0,1,1.27.88,1.45,1.45,0,0,1-.86,2.09c-.19.07-.35.11-.38.38a.47.47,0,0,1-.53.39.52.52,0,0,1-.51-.43A1.56,1.56,0,0,1,12,8.88Z" fill="#fff"/></svg>