<svg xmlns="http://www.w3.org/2000/svg" width="33" height="33" viewBox="0 0 33 33"><path d="M32.71,9c-.27.77-.58,1.53-.8,2.32-.31,1.07-.8,1.33-1.86.92-.71-.28-1.45-.5-2.18-.75a1,1,0,1,1,.6-1.8l.51.17c-.06-.13-.1-.21-.14-.28A14.86,14.86,0,0,0,20.71,3a1,1,0,0,1-.77-1,.92.92,0,0,1,.83-.85,1.67,1.67,0,0,1,.62.09,16.26,16.26,0,0,1,7.48,5.15c.65.79,1.22,1.66,1.85,2.51l.11-.34a1,1,0,0,1,.89-.73.94.94,0,0,1,.94.63l.05.06Z" fill="#fff"/><path d="M2.27,11.8a9.54,9.54,0,1,1,9.52,9.55A9.56,9.56,0,0,1,2.27,11.8ZM12.8,7.05l0-.09c-.06-.69-.4-1-1-1A1,1,0,0,0,10.85,7c0,.09-.11.24-.21.29a2.86,2.86,0,0,0,1.11,5.47,1,1,0,1,1,0,1.91H10a1,1,0,1,0,0,1.9h.86c0,.06,0,.08,0,.1,0,.67.41,1.06,1,1a1,1,0,0,0,.91-1.07c0-.21.11-.27.26-.34a2.85,2.85,0,0,0-1.13-5.44,1,1,0,0,1-1-1,.94.94,0,0,1,1-.94c.6,0,1.2,0,1.8,0a.95.95,0,1,0,0-1.89Z" fill="#fff"/><path d="M22.47,16.08c.19-.7.41-1.37.55-2.06s.18-1.39.27-2.09A9.48,9.48,0,0,1,30.73,21a9.53,9.53,0,0,1-18.83,2.3c.71-.09,1.42-.14,2.12-.27s1.36-.36,2.07-.55c.06.19.13.41.21.62A5.25,5.25,0,0,0,25,24.74a1.41,1.41,0,0,0,.32-.54.9.9,0,0,0-.46-1,.92.92,0,0,0-1.16.2A3.5,3.5,0,0,1,22,24.44a3.34,3.34,0,0,1-3.89-2.05,2.06,2.06,0,0,1-.07-.25h3.56a1,1,0,1,0,0-1.9,16.89,16.89,0,0,1-2-.08,5.21,5.21,0,0,0,.59-.56,18.7,18.7,0,0,0,1.17-1.49.42.42,0,0,1,.52-.2A3.43,3.43,0,0,1,23.69,19a1,1,0,0,0,.89.37.9.9,0,0,0,.75-.61.91.91,0,0,0-.19-1,5.19,5.19,0,0,0-2.37-1.56l-.27-.09Z" fill="#fff"/><path d="M2.3,24.11a4.94,4.94,0,0,1-.19.52.92.92,0,0,1-1.19.55A.93.93,0,0,1,.33,24c.3-.92.6-1.84.92-2.76a1,1,0,0,1,1.23-.59q1.34.43,2.67.9a.93.93,0,0,1,.64,1.22,1,1,0,0,1-1.26.57L4,23.18a15.44,15.44,0,0,0,2.14,2.9,14.54,14.54,0,0,0,6.18,4,1,1,0,0,1,.75,1,.93.93,0,0,1-.84.85,1.32,1.32,0,0,1-.55-.08A16.5,16.5,0,0,1,3.29,25.6C3,25.13,2.65,24.64,2.3,24.11Z" fill="#fff"/></svg>